<?xml version="1.0" encoding="utf-8"?>
<!-- Svg Vector Icons : http://www.onlinewebfonts.com/icon -->
<!DOCTYPE svg PUBLIC "-//W3C//DTD SVG 1.1//EN" "http://www.w3.org/Graphics/SVG/1.1/DTD/svg11.dtd">
<svg version="1.1" xmlns="http://www.w3.org/2000/svg" xmlns:xlink="http://www.w3.org/1999/xlink" x="0px" y="0px" viewBox="0 0 256 256" enable-background="new 0 0 256 256" xml:space="preserve">
<metadata> Svg Vector Icons : http://www.onlinewebfonts.com/icon </metadata>
<g><g><g><g><g><path fill="#eecdb1" d="M235.5,88.9c-7.5-10.4-18.9-18.1-31.3-21.2c-4.2-1.1-8.5-1.6-12.9-1.6c-9.1,0-17.5,2.4-24.3,6.9c-11.1,7-18.6,18.8-20.2,31.5c-2.1,13.1,3.4,26.9,13.8,34.5c5.9,4.5,13.7,7.1,21.4,7.1c5.8,0,11.1-1.4,15.4-4.1c11.7-7.1,16.9-22.4,11.5-34.3c-2.8-6-8.2-10.7-14.5-12.5c-1.9-0.6-3.7-0.8-5.6-0.9l-0.2,4.3c1.5,0.1,3.1,0.4,4.6,0.9c4.9,1.7,9.1,5.6,11,10.4c1,2.3,1.5,4.9,1.4,7.3c0,2.7-0.5,5.2-1.4,7.8c-1.9,4.9-5.5,9.2-9.9,11.7c-8.1,4.9-20.9,3.4-29.2-3.3c-8.2-6.5-12.2-17.2-10.5-27.9c1.4-10.5,7.7-20.2,16.9-25.8c4.4-2.8,9.5-4.6,14.8-5.2c2.2-0.3,5.2-0.3,8.1-0.1c2.7,0.2,5.5,0.7,8,1.3c10.5,2.7,20.1,9.3,26.4,18.2c6.6,8.9,9.7,19.6,9,31c-0.5,11.1-4.3,22.2-10.7,31.4c-6.4,9.2-15.6,16.8-26,21.2c-4.8,2.1-10.3,3.6-16.3,4.5c-3.8,0.5-7.8,0.6-12.7,0.7l-138.3,1.9l-23.4,0.9l0.1,4.3l156.3,0.1c1.8,0,3.6,0,5.4,0l3.3,0c3,0,6.6,0,10.2-0.5c6.6-0.8,12.8-2.4,18.4-4.8c11.7-4.9,22.2-13.3,29.5-23.7c7.4-10.4,11.8-23.1,12.5-35.7C246.8,112.3,243,99.1,235.5,88.9z"/></g><g><path fill="#eecdb1" d="M93.8,174.8c0.5,0,1.2,0,1.8,0l4.3,0c1.2,0,2.3,0,3.4,0c2.2,0,5.1,0,8.2-0.5c6-1,11.7-3.5,16.4-7.3c9.7-7.7,14.8-20.4,13-32.5c-1.9-12.3-12.5-22.5-24.8-23.8c-6.7-0.8-12.9,0.8-17.6,4.4c-5.1,3.8-8.4,9.5-9.1,15.6c-1,6.3,1.4,13,6,17c4.6,4.1,12.1,5.8,17.6,3.9c4-1.3,7.4-4.6,9.1-8.6l-3.9-1.8c-1.4,2.8-4,4.8-6.9,5.5c-1,0.2-1.8,0.3-2.6,0.3c-3.4,0-6.9-1.5-9.1-3.8c-3-3.2-4.1-7.2-3.2-11.6c0.8-4,3.4-7.9,6.7-10.3c3.5-2.5,7.3-3.4,12.1-2.7c8.7,1.1,16.2,8.6,17.3,17.5c1.6,8.9-2.3,18.9-9.6,24.8c-3.6,3-8,5.1-12.8,6c-2,0.4-3.9,0.5-6,0.5l-82.1,2.2c-3.9,0.3-7.9,0.6-11.9,0.9l0.1,4.3L93.8,174.8z"/></g></g></g><g></g><g></g><g></g><g></g><g></g><g></g><g></g><g></g><g></g><g></g><g></g><g></g><g></g><g></g><g></g></g></g>
</svg>